# xmcd CD database file
#
# Track frame offsets:
#	150
#	20310
#	42786
#	62517
#	82436
#	101617
#	118309
#	141154
#	144858
#	163314
#
# Disc length: 2536 seconds
#
# Revision: 0
# Processed by: cddbd v1.5.1PL2 Copyright (c) Steve Scherf et al.
# Submitted via: CDex 1.60beta1
#
DISCID=8b09e60a
DTITLE=Safety Shoes - Big Smile
DYEAR=2005
DGENRE=JPop
TTITLE0=West Gate
TTITLE1=明日なんて来なけりゃいいのに
TTITLE2=遥かなる夢の都
TTITLE3=シューズ
TTITLE4=世界中にラブソング
TTITLE5=What's going on ?
TTITLE6=私的現代パラダイム
TTITLE7=Better days
TTITLE8=いちばん大切なもの
TTITLE9=REGENERATE
EXTD=YEAR: 2005
EXTT0=
EXTT1=
EXTT2=
EXTT3=
EXTT4=
EXTT5=
EXTT6=
EXTT7=
EXTT8=
EXTT9=
PLAYORDER=
